<svg xmlns="http://www.w3.org/2000/svg" width="150" height="58" viewBox="0 0 150 58"><defs><clipPath id="prefix__clip-path"><path id="prefix__사각형_856" d="M0 0h30v29H0z" data-name="사각형 856" transform="translate(.1)" fill="none"/></clipPath><clipPath id="prefix__clip-path-4"><path id="prefix__사각형_858" d="M0 0h30v29H0z" class="prefix__cls-2" data-name="사각형 858" transform="translate(.1)"/></clipPath><style>.prefix__cls-2{fill:#fed220}.prefix__cls-3{clip-path:url(#prefix__clip-path)}.prefix__cls-4{clip-path:url(#prefix__clip-path-4)}.prefix__cls-5{fill:#edf0f3}</style></defs><g id="prefix__test" transform="translate(-2539 -2842)"><g id="prefix__icon_star_on_C" class="prefix__cls-3" transform="translate(2538.9 2871)"><path id="prefix__패스_1660" d="M2.26-.55l-.067-.178a2.614 2.614 0 0 0-2.22-1.563L-5.9-3.127l-2.6-5.15a2.661 2.661 0 0 0-2.385-1.65 2.62 2.62 0 0 0-2.256 1.595l-2.619 5.2-5.811.83A2.6 2.6 0 0 0-23.84-.738l-.072.191a2.575 2.575 0 0 0 .862 2.632l4.236 4.041-.986 5.654a2.691 2.691 0 0 0 .45 2.254l.083.11a2.341 2.341 0 0 0 1.767.756 3.163 3.163 0 0 0 1.416-.376l5.266-2.713 5.252 2.706a3.179 3.179 0 0 0 1.421.383h.078a2.277 2.277 0 0 0 1.641-.7l.146-.1.034-.122a2.678 2.678 0 0 0 .42-2.154l-1-5.7 4.188-4A2.6 2.6 0 0 0 2.26-.55z" class="prefix__cls-2" data-name="패스 1660" transform="translate(25.985 12.101)"/></g><g id="prefix__icon_star_on_C-2" class="prefix__cls-3" data-name="icon_star_on_C" transform="translate(2598.9 2871)"><path id="prefix__패스_1661" d="M2.26-.55l-.067-.178a2.614 2.614 0 0 0-2.22-1.563L-5.9-3.127l-2.6-5.15a2.661 2.661 0 0 0-2.385-1.65 2.62 2.62 0 0 0-2.256 1.595l-2.619 5.2-5.811.83A2.6 2.6 0 0 0-23.84-.738l-.072.191a2.575 2.575 0 0 0 .862 2.632l4.236 4.041-.986 5.654a2.691 2.691 0 0 0 .45 2.254l.083.11a2.341 2.341 0 0 0 1.767.756 3.163 3.163 0 0 0 1.416-.376l5.266-2.713 5.252 2.706a3.179 3.179 0 0 0 1.421.383h.078a2.277 2.277 0 0 0 1.641-.7l.146-.1.034-.122a2.678 2.678 0 0 0 .42-2.154l-1-5.7 4.188-4A2.6 2.6 0 0 0 2.26-.55z" class="prefix__cls-2" data-name="패스 1661" transform="translate(25.985 12.101)"/></g><g id="prefix__icon_star_on_C-3" class="prefix__cls-3" data-name="icon_star_on_C" transform="translate(2658.9 2871)"><path id="prefix__패스_1668" d="M2.26-.55l-.067-.178a2.614 2.614 0 0 0-2.22-1.563L-5.9-3.127l-2.6-5.15a2.661 2.661 0 0 0-2.385-1.65 2.62 2.62 0 0 0-2.256 1.595l-2.619 5.2-5.811.83A2.6 2.6 0 0 0-23.84-.738l-.072.191a2.575 2.575 0 0 0 .862 2.632l4.236 4.041-.986 5.654a2.691 2.691 0 0 0 .45 2.254l.083.11a2.341 2.341 0 0 0 1.767.756 3.163 3.163 0 0 0 1.416-.376l5.266-2.713 5.252 2.706a3.179 3.179 0 0 0 1.421.383h.078a2.277 2.277 0 0 0 1.641-.7l.146-.1.034-.122a2.678 2.678 0 0 0 .42-2.154l-1-5.7 4.188-4A2.6 2.6 0 0 0 2.26-.55z" class="prefix__cls-2" data-name="패스 1668" transform="translate(25.985 12.101)"/></g><g id="prefix__icon_star_on_C-4" class="prefix__cls-4" data-name="icon_star_on_C" transform="translate(2568.9 2871)"><path id="prefix__패스_1662" d="M2.26-.55l-.067-.178a2.614 2.614 0 0 0-2.22-1.563L-5.9-3.127l-2.6-5.15a2.661 2.661 0 0 0-2.385-1.65 2.62 2.62 0 0 0-2.256 1.595l-2.619 5.2-5.811.83A2.6 2.6 0 0 0-23.84-.738l-.072.191a2.575 2.575 0 0 0 .862 2.632l4.236 4.041-.986 5.654a2.691 2.691 0 0 0 .45 2.254l.083.11a2.341 2.341 0 0 0 1.767.756 3.163 3.163 0 0 0 1.416-.376l5.266-2.713 5.252 2.706a3.179 3.179 0 0 0 1.421.383h.078a2.277 2.277 0 0 0 1.641-.7l.146-.1.034-.122a2.678 2.678 0 0 0 .42-2.154l-1-5.7 4.188-4A2.6 2.6 0 0 0 2.26-.55z" class="prefix__cls-2" data-name="패스 1662" transform="translate(25.985 12.101)"/></g><g id="prefix__icon_star_on_C-5" class="prefix__cls-4" data-name="icon_star_on_C" transform="translate(2628.9 2871)"><path id="prefix__패스_1669" d="M2.26-.55l-.067-.178a2.614 2.614 0 0 0-2.22-1.563L-5.9-3.127l-2.6-5.15a2.661 2.661 0 0 0-2.385-1.65 2.62 2.62 0 0 0-2.256 1.595l-2.619 5.2-5.811.83A2.6 2.6 0 0 0-23.84-.738l-.072.191a2.575 2.575 0 0 0 .862 2.632l4.236 4.041-.986 5.654a2.691 2.691 0 0 0 .45 2.254l.083.11a2.341 2.341 0 0 0 1.767.756 3.163 3.163 0 0 0 1.416-.376l5.266-2.713 5.252 2.706a3.179 3.179 0 0 0 1.421.383h.078a2.277 2.277 0 0 0 1.641-.7l.146-.1.034-.122a2.678 2.678 0 0 0 .42-2.154l-1-5.7 4.188-4A2.6 2.6 0 0 0 2.26-.55z" class="prefix__cls-2" data-name="패스 1669" transform="translate(25.985 12.101)"/></g><g id="prefix__icon_star_off_C" class="prefix__cls-3" transform="translate(2628.9 2842)"><path id="prefix__패스_1658" d="M2.26-.55l-.067-.178a2.614 2.614 0 0 0-2.22-1.563L-5.9-3.127l-2.6-5.15a2.661 2.661 0 0 0-2.385-1.65 2.62 2.62 0 0 0-2.256 1.595l-2.619 5.2-5.811.83A2.6 2.6 0 0 0-23.84-.738l-.072.191a2.575 2.575 0 0 0 .862 2.632l4.236 4.041-.986 5.654a2.691 2.691 0 0 0 .45 2.254l.083.11a2.341 2.341 0 0 0 1.767.756 3.163 3.163 0 0 0 1.416-.376l5.266-2.713 5.252 2.706a3.179 3.179 0 0 0 1.421.383h.078a2.277 2.277 0 0 0 1.641-.7l.146-.1.034-.122a2.678 2.678 0 0 0 .42-2.154l-1-5.7 4.188-4A2.6 2.6 0 0 0 2.26-.55z" class="prefix__cls-5" data-name="패스 1658" transform="translate(25.985 12.101)"/></g><g id="prefix__icon_star_off_C-2" class="prefix__cls-3" data-name="icon_star_off_C" transform="translate(2568.9 2842)"><path id="prefix__패스_1666" d="M2.26-.55l-.067-.178a2.614 2.614 0 0 0-2.22-1.563L-5.9-3.127l-2.6-5.15a2.661 2.661 0 0 0-2.385-1.65 2.62 2.62 0 0 0-2.256 1.595l-2.619 5.2-5.811.83A2.6 2.6 0 0 0-23.84-.738l-.072.191a2.575 2.575 0 0 0 .862 2.632l4.236 4.041-.986 5.654a2.691 2.691 0 0 0 .45 2.254l.083.11a2.341 2.341 0 0 0 1.767.756 3.163 3.163 0 0 0 1.416-.376l5.266-2.713 5.252 2.706a3.179 3.179 0 0 0 1.421.383h.078a2.277 2.277 0 0 0 1.641-.7l.146-.1.034-.122a2.678 2.678 0 0 0 .42-2.154l-1-5.7 4.188-4A2.6 2.6 0 0 0 2.26-.55z" class="prefix__cls-5" data-name="패스 1666" transform="translate(25.985 12.101)"/></g><g id="prefix__icon_star_off_C-3" class="prefix__cls-3" data-name="icon_star_off_C" transform="translate(2538.9 2842)"><path id="prefix__패스_1667" d="M2.26-.55l-.067-.178a2.614 2.614 0 0 0-2.22-1.563L-5.9-3.127l-2.6-5.15a2.661 2.661 0 0 0-2.385-1.65 2.62 2.62 0 0 0-2.256 1.595l-2.619 5.2-5.811.83A2.6 2.6 0 0 0-23.84-.738l-.072.191a2.575 2.575 0 0 0 .862 2.632l4.236 4.041-.986 5.654a2.691 2.691 0 0 0 .45 2.254l.083.11a2.341 2.341 0 0 0 1.767.756 3.163 3.163 0 0 0 1.416-.376l5.266-2.713 5.252 2.706a3.179 3.179 0 0 0 1.421.383h.078a2.277 2.277 0 0 0 1.641-.7l.146-.1.034-.122a2.678 2.678 0 0 0 .42-2.154l-1-5.7 4.188-4A2.6 2.6 0 0 0 2.26-.55z" class="prefix__cls-5" data-name="패스 1667" transform="translate(25.985 12.101)"/></g><g id="prefix__icon_star_off_C-4" class="prefix__cls-3" data-name="icon_star_off_C" transform="translate(2658.9 2842)"><path id="prefix__패스_1659" d="M2.26-.55l-.067-.178a2.614 2.614 0 0 0-2.22-1.563L-5.9-3.127l-2.6-5.15a2.661 2.661 0 0 0-2.385-1.65 2.62 2.62 0 0 0-2.256 1.595l-2.619 5.2-5.811.83A2.6 2.6 0 0 0-23.84-.738l-.072.191a2.575 2.575 0 0 0 .862 2.632l4.236 4.041-.986 5.654a2.691 2.691 0 0 0 .45 2.254l.083.11a2.341 2.341 0 0 0 1.767.756 3.163 3.163 0 0 0 1.416-.376l5.266-2.713 5.252 2.706a3.179 3.179 0 0 0 1.421.383h.078a2.277 2.277 0 0 0 1.641-.7l.146-.1.034-.122a2.678 2.678 0 0 0 .42-2.154l-1-5.7 4.188-4A2.6 2.6 0 0 0 2.26-.55z" class="prefix__cls-5" data-name="패스 1659" transform="translate(25.985 12.101)"/></g><g id="prefix__icon_star_off_C-5" class="prefix__cls-3" data-name="icon_star_off_C" transform="translate(2598.9 2842)"><path id="prefix__패스_1665" d="M2.26-.55l-.067-.178a2.614 2.614 0 0 0-2.22-1.563L-5.9-3.127l-2.6-5.15a2.661 2.661 0 0 0-2.385-1.65 2.62 2.62 0 0 0-2.256 1.595l-2.619 5.2-5.811.83A2.6 2.6 0 0 0-23.84-.738l-.072.191a2.575 2.575 0 0 0 .862 2.632l4.236 4.041-.986 5.654a2.691 2.691 0 0 0 .45 2.254l.083.11a2.341 2.341 0 0 0 1.767.756 3.163 3.163 0 0 0 1.416-.376l5.266-2.713 5.252 2.706a3.179 3.179 0 0 0 1.421.383h.078a2.277 2.277 0 0 0 1.641-.7l.146-.1.034-.122a2.678 2.678 0 0 0 .42-2.154l-1-5.7 4.188-4A2.6 2.6 0 0 0 2.26-.55z" class="prefix__cls-5" data-name="패스 1665" transform="translate(25.985 12.101)"/></g></g></svg>